<svg xmlns="http://www.w3.org/2000/svg" xmlns:xlink="http://www.w3.org/1999/xlink" width="259" zoomAndPan="magnify" viewBox="0 0 194.25 41.25" height="55" preserveAspectRatio="xMidYMid meet" version="1.0"><defs><g/><clipPath id="7233b22ed1"><path d="M 4 36 L 32 36 L 32 36.832031 L 4 36.832031 Z M 4 36 " clip-rule="nonzero"/></clipPath><clipPath id="35cd0a3dc1"><path d="M 43 36 L 70 36 L 70 36.832031 L 43 36.832031 Z M 43 36 " clip-rule="nonzero"/></clipPath><clipPath id="baa0c3e365"><path d="M 1.367188 29 L 32 29 L 32 36 L 1.367188 36 Z M 1.367188 29 " clip-rule="nonzero"/></clipPath><clipPath id="d7f71944a4"><path d="M 43 29 L 72.816406 29 L 72.816406 36 L 43 36 Z M 43 29 " clip-rule="nonzero"/></clipPath><clipPath id="00f200dcb0"><path d="M 30 29 L 45 29 L 45 36.832031 L 30 36.832031 Z M 30 29 " clip-rule="nonzero"/></clipPath><clipPath id="99edbe5d1d"><path d="M 30 30 L 44 30 L 44 36.832031 L 30 36.832031 Z M 30 30 " clip-rule="nonzero"/></clipPath></defs><path fill="#000000" d="M 37.042969 0.0195312 L 37.492188 0.015625 L 37.613281 30.339844 L 37.164062 30.34375 Z M 37.042969 0.0195312 " fill-opacity="1" fill-rule="nonzero"/><path fill="#000000" d="M 26.71875 11.75 L 27.132812 11.578125 L 35.164062 30.742188 L 34.75 30.914062 Z M 26.71875 11.75 " fill-opacity="1" fill-rule="nonzero"/><path fill="#000000" d="M 19.875 19.589844 L 20.1875 19.273438 L 33.058594 32.042969 L 32.746094 32.359375 Z M 19.875 19.589844 " fill-opacity="1" fill-rule="nonzero"/><path fill="#000000" d="M 13.367188 27.050781 L 13.539062 26.632812 L 31.613281 34.035156 L 31.441406 34.453125 Z M 13.367188 27.050781 " fill-opacity="1" fill-rule="nonzero"/><g clip-path="url(#7233b22ed1)"><path fill="#000000" d="M 4.652344 36.472656 L 31.035156 36.363281 L 31.035156 36.8125 L 4.652344 36.917969 Z M 4.652344 36.472656 " fill-opacity="1" fill-rule="nonzero"/></g><g clip-path="url(#35cd0a3dc1)"><path fill="#000000" d="M 43.757812 36.460938 L 69.601562 36.359375 L 69.605469 36.808594 L 43.761719 36.910156 Z M 43.757812 36.460938 " fill-opacity="1" fill-rule="nonzero"/></g><path fill="#000000" d="M 43.203125 34.089844 L 60.921875 26.671875 L 61.09375 27.085938 L 43.375 34.503906 Z M 43.203125 34.089844 " fill-opacity="1" fill-rule="nonzero"/><path fill="#000000" d="M 41.742188 32.058594 L 54.363281 19.34375 L 54.679688 19.660156 L 42.0625 32.375 Z M 41.742188 32.058594 " fill-opacity="1" fill-rule="nonzero"/><path fill="#000000" d="M 39.621094 30.742188 L 47.453125 11.613281 L 47.867188 11.78125 L 40.035156 30.910156 Z M 39.621094 30.742188 " fill-opacity="1" fill-rule="nonzero"/><path fill="#000000" d="M 29.914062 0.765625 L 30.355469 0.675781 L 36.394531 30.417969 L 35.953125 30.503906 Z M 29.914062 0.765625 " fill-opacity="1" fill-rule="nonzero"/><path fill="#000000" d="M 16.769531 6.308594 L 17.140625 6.054688 L 34.117188 31.246094 L 33.746094 31.496094 Z M 16.769531 6.308594 " fill-opacity="1" fill-rule="nonzero"/><path fill="#000000" d="M 6.742188 16.457031 L 6.992188 16.082031 L 32.316406 32.855469 L 32.070312 33.230469 Z M 6.742188 16.457031 " fill-opacity="1" fill-rule="nonzero"/><g clip-path="url(#baa0c3e365)"><path fill="#000000" d="M 1.363281 29.667969 L 1.449219 29.226562 L 31.242188 35.027344 L 31.15625 35.46875 Z M 1.363281 29.667969 " fill-opacity="1" fill-rule="nonzero"/></g><g clip-path="url(#d7f71944a4)"><path fill="#000000" d="M 43.589844 35.21875 L 73.078125 29.226562 L 73.167969 29.664062 L 43.679688 35.660156 Z M 43.589844 35.21875 " fill-opacity="1" fill-rule="nonzero"/></g><path fill="#000000" d="M 42.527344 32.933594 L 67.542969 16.085938 L 67.792969 16.457031 L 42.777344 33.304688 Z M 42.527344 32.933594 " fill-opacity="1" fill-rule="nonzero"/><path fill="#000000" d="M 40.691406 31.257812 L 57.394531 6.058594 L 57.769531 6.308594 L 41.066406 31.503906 Z M 40.691406 31.257812 " fill-opacity="1" fill-rule="nonzero"/><path fill="#000000" d="M 38.386719 30.417969 L 44.171875 0.679688 L 44.613281 0.765625 L 38.828125 30.503906 Z M 38.386719 30.417969 " fill-opacity="1" fill-rule="nonzero"/><g clip-path="url(#00f200dcb0)"><path fill="#000000" d="M 42.886719 36.914062 L 42.886719 36.6875 C 42.886719 36.324219 42.847656 35.960938 42.777344 35.609375 C 42.710938 35.277344 42.609375 34.949219 42.480469 34.632812 C 42.335938 34.277344 42.152344 33.9375 41.933594 33.617188 C 41.742188 33.335938 41.523438 33.074219 41.285156 32.835938 C 41.015625 32.566406 40.722656 32.324219 40.402344 32.117188 C 40.117188 31.929688 39.8125 31.765625 39.492188 31.636719 C 39.15625 31.496094 38.800781 31.390625 38.441406 31.320312 C 38.097656 31.253906 37.746094 31.222656 37.398438 31.222656 C 37.035156 31.222656 36.683594 31.253906 36.339844 31.324219 C 35.980469 31.394531 35.625 31.5 35.289062 31.640625 C 34.984375 31.765625 34.6875 31.921875 34.40625 32.105469 C 34.085938 32.3125 33.789062 32.554688 33.519531 32.824219 C 32.460938 33.875 31.902344 35.199219 31.902344 36.648438 L 31.902344 36.871094 L 30.15625 36.871094 L 30.15625 36.648438 C 30.15625 34.722656 30.890625 32.972656 32.28125 31.585938 C 32.636719 31.234375 33.03125 30.914062 33.453125 30.640625 C 33.820312 30.402344 34.214844 30.195312 34.617188 30.027344 C 35.0625 29.839844 35.53125 29.699219 36.003906 29.609375 C 36.457031 29.519531 36.921875 29.476562 37.382812 29.472656 C 37.855469 29.472656 38.316406 29.519531 38.769531 29.605469 C 39.242188 29.695312 39.710938 29.835938 40.160156 30.023438 C 40.578125 30.195312 40.980469 30.410156 41.359375 30.65625 C 41.777344 30.933594 42.167969 31.25 42.519531 31.601562 C 42.835938 31.917969 43.121094 32.265625 43.375 32.632812 C 43.660156 33.050781 43.902344 33.503906 44.097656 33.972656 C 44.265625 34.390625 44.398438 34.824219 44.488281 35.265625 C 44.582031 35.726562 44.632812 36.203125 44.632812 36.683594 L 44.632812 36.90625 Z M 37.386719 30.773438 C 37.777344 30.773438 38.15625 30.808594 38.527344 30.878906 C 38.917969 30.953125 39.300781 31.070312 39.664062 31.222656 C 40.007812 31.363281 40.339844 31.539062 40.648438 31.742188 C 40.992188 31.96875 41.316406 32.230469 41.601562 32.515625 C 41.863281 32.777344 42.097656 33.0625 42.304688 33.363281 C 42.539062 33.710938 42.738281 34.078125 42.898438 34.464844 C 43.035156 34.804688 43.144531 35.160156 43.21875 35.519531 C 43.28125 35.828125 43.320312 36.144531 43.332031 36.460938 L 44.183594 36.460938 C 44.167969 36.085938 44.125 35.714844 44.050781 35.351562 C 43.96875 34.941406 43.84375 34.535156 43.683594 34.144531 C 43.503906 33.703125 43.273438 33.277344 43.007812 32.886719 C 42.769531 32.539062 42.5 32.214844 42.203125 31.917969 C 41.875 31.585938 41.507812 31.289062 41.113281 31.03125 C 40.761719 30.796875 40.382812 30.597656 39.988281 30.4375 C 39.570312 30.261719 39.132812 30.128906 38.6875 30.046875 C 38.261719 29.964844 37.828125 29.921875 37.394531 29.921875 C 36.949219 29.921875 36.515625 29.964844 36.089844 30.046875 C 35.644531 30.136719 35.210938 30.265625 34.792969 30.441406 C 34.414062 30.597656 34.042969 30.792969 33.699219 31.015625 C 33.304688 31.273438 32.933594 31.570312 32.601562 31.902344 C 31.351562 33.152344 30.664062 34.710938 30.609375 36.421875 L 31.460938 36.421875 C 31.515625 34.941406 32.117188 33.589844 33.203125 32.503906 C 33.492188 32.214844 33.816406 31.953125 34.164062 31.730469 C 34.464844 31.535156 34.785156 31.363281 35.121094 31.226562 C 35.484375 31.074219 35.867188 30.960938 36.253906 30.882812 C 36.625 30.8125 37.007812 30.773438 37.386719 30.773438 Z M 37.386719 30.773438 " fill-opacity="1" fill-rule="nonzero"/></g><g clip-path="url(#99edbe5d1d)"><path fill="#000000" d="M 43.535156 36.683594 C 43.535156 36.28125 43.492188 35.875 43.414062 35.480469 C 43.339844 35.109375 43.226562 34.742188 43.082031 34.386719 C 42.917969 33.988281 42.714844 33.605469 42.472656 33.25 C 42.257812 32.9375 42.011719 32.644531 41.746094 32.375 C 41.445312 32.074219 41.117188 31.804688 40.761719 31.570312 C 40.4375 31.359375 40.097656 31.179688 39.742188 31.035156 C 39.363281 30.875 38.96875 30.757812 38.566406 30.679688 C 38.179688 30.609375 37.789062 30.570312 37.398438 30.570312 C 36.996094 30.570312 36.601562 30.609375 36.214844 30.683594 C 35.8125 30.761719 35.417969 30.878906 35.042969 31.035156 C 34.699219 31.179688 34.367188 31.355469 34.054688 31.558594 C 33.695312 31.789062 33.363281 32.0625 33.058594 32.363281 C 31.878906 33.539062 31.253906 35.019531 31.253906 36.644531 L 30.808594 36.644531 C 30.808594 34.898438 31.476562 33.308594 32.742188 32.042969 C 33.066406 31.722656 33.421875 31.433594 33.808594 31.183594 C 34.144531 30.964844 34.5 30.777344 34.871094 30.625 C 35.273438 30.457031 35.699219 30.328125 36.128906 30.246094 C 36.542969 30.164062 36.964844 30.125 37.386719 30.121094 L 37.390625 30.121094 C 37.816406 30.121094 38.238281 30.160156 38.648438 30.242188 C 39.082031 30.324219 39.507812 30.453125 39.914062 30.621094 C 40.292969 30.777344 40.660156 30.972656 41.003906 31.199219 C 41.386719 31.449219 41.742188 31.738281 42.0625 32.058594 C 42.351562 32.347656 42.613281 32.664062 42.839844 33 C 43.101562 33.378906 43.320312 33.792969 43.496094 34.21875 C 43.652344 34.597656 43.773438 34.992188 43.851562 35.394531 C 43.9375 35.816406 43.984375 36.25 43.984375 36.683594 Z M 43.535156 36.683594 " fill-opacity="1" fill-rule="nonzero"/></g><g fill="#000000" fill-opacity="1"><g transform="translate(77.760135, 21.235616)"><g><path d="M 0.6875 0 L 3.890625 0 C 7.515625 0 8.859375 -1.734375 8.828125 -3.46875 C 8.828125 -4.9375 7.578125 -6.0625 5.140625 -6.140625 C 7 -6.453125 7.640625 -7.375 7.640625 -8.375 C 7.640625 -9.578125 6.75 -10.328125 4.34375 -10.328125 L 0.6875 -10.328125 L 0.6875 -10.125 C 1.1875 -9.953125 1.28125 -9.515625 1.28125 -8.453125 L 1.28125 -1.875 C 1.28125 -0.8125 1.1875 -0.375 0.6875 -0.203125 Z M 2.84375 -1.515625 L 2.84375 -5.9375 L 3.890625 -5.9375 C 6.09375 -5.9375 7.078125 -4.6875 7.078125 -2.921875 C 7.078125 -1.359375 6.15625 -0.234375 4.03125 -0.234375 L 3.609375 -0.234375 C 2.984375 -0.234375 2.84375 -0.453125 2.84375 -1.515625 Z M 2.84375 -6.1875 L 2.84375 -10.09375 L 3.453125 -10.09375 C 4.953125 -10.09375 5.890625 -9.34375 5.890625 -8.03125 C 5.890625 -7 5.234375 -6.1875 4.15625 -6.1875 Z M 2.84375 -6.1875 "/></g></g></g><g fill="#000000" fill-opacity="1"><g transform="translate(89.335203, 21.235616)"><g><path d="M 0.6875 0 L 7.71875 0 L 7.828125 -1.859375 L 7.640625 -1.890625 C 7.046875 -0.625 6.28125 -0.265625 4.796875 -0.265625 L 3.578125 -0.265625 C 3.109375 -0.265625 2.84375 -0.53125 2.84375 -1 L 2.84375 -8.453125 C 2.84375 -9.515625 2.953125 -9.953125 3.4375 -10.125 L 3.4375 -10.328125 L 0.6875 -10.328125 L 0.6875 -10.125 C 1.1875 -9.953125 1.28125 -9.515625 1.28125 -8.453125 L 1.28125 -1.875 C 1.28125 -0.8125 1.1875 -0.375 0.6875 -0.203125 Z M 0.6875 0 "/></g></g></g><g fill="#000000" fill-opacity="1"><g transform="translate(99.686546, 21.235616)"><g><path d="M -0.3125 0 L 1.40625 0 L 1.40625 -0.203125 C 0.90625 -0.328125 0.8125 -0.75 1.203125 -1.734375 L 2.0625 -3.84375 L 6 -3.84375 L 6.890625 -1.71875 C 7.296875 -0.75 7.5 -0.375 7.015625 -0.203125 L 7.015625 0 L 9.703125 0 L 9.703125 -0.203125 C 9.359375 -0.375 8.984375 -0.75 8.5625 -1.71875 L 4.90625 -10.4375 L 3.46875 -9.796875 L 3.65625 -9.375 C 3.796875 -9.109375 3.8125 -8.875 3.6875 -8.578125 L 0.921875 -1.734375 C 0.53125 -0.75 0.125 -0.375 -0.3125 -0.203125 Z M 2.15625 -4.078125 L 4 -8.640625 L 5.90625 -4.078125 Z M 2.15625 -4.078125 "/></g></g></g><g fill="#000000" fill-opacity="1"><g transform="translate(111.423791, 21.235616)"><g><path d="M 6.484375 0.140625 C 8.296875 0.140625 9.40625 -0.203125 10.1875 -0.5625 L 10.421875 -2.671875 L 10.234375 -2.703125 C 9.703125 -1.171875 8.5625 -0.15625 6.921875 -0.15625 C 4.046875 -0.15625 2.359375 -2.796875 2.359375 -5.65625 C 2.359375 -8.578125 4.03125 -10.140625 6.390625 -10.140625 C 7.90625 -10.140625 9.421875 -9.234375 10.03125 -7.71875 L 10.203125 -7.765625 L 10.140625 -9.703125 C 9.375 -10.21875 7.859375 -10.421875 6.765625 -10.421875 C 3.15625 -10.421875 0.796875 -7.96875 0.796875 -4.984375 C 0.796875 -1.6875 2.96875 0.140625 6.484375 0.140625 Z M 6.484375 0.140625 "/></g></g></g><g fill="#000000" fill-opacity="1"><g transform="translate(124.75336, 21.235616)"><g><path d="M 0.6875 0 L 3.4375 0 L 3.4375 -0.203125 C 2.953125 -0.375 2.84375 -0.8125 2.84375 -1.875 L 2.84375 -4.640625 L 3.6875 -5.515625 L 3.953125 -5.515625 C 5.28125 -5.515625 5.421875 -4.703125 6.359375 -2.421875 C 7.25 -0.25 7.40625 0.109375 8.625 0.109375 C 8.9375 0.109375 9.296875 0.09375 9.625 0 L 9.625 -0.21875 C 9.546875 -0.203125 9.484375 -0.203125 9.40625 -0.203125 C 8.9375 -0.203125 8.734375 -0.5625 7.859375 -2.796875 C 6.953125 -5.140625 6.515625 -5.90625 4.3125 -5.78125 L 3.9375 -5.765625 L 7.078125 -8.984375 C 7.828125 -9.75 8.515625 -9.953125 9.09375 -10.125 L 9.09375 -10.328125 L 6.78125 -10.328125 L 6.78125 -10.171875 C 7.421875 -10.078125 7.375 -9.609375 6.4375 -8.65625 L 2.84375 -4.984375 L 2.84375 -8.453125 C 2.84375 -9.515625 2.953125 -9.953125 3.4375 -10.125 L 3.4375 -10.328125 L 0.6875 -10.328125 L 0.6875 -10.125 C 1.1875 -9.953125 1.28125 -9.515625 1.28125 -8.453125 L 1.28125 -1.875 C 1.28125 -0.8125 1.1875 -0.375 0.6875 -0.203125 Z M 0.6875 0 "/></g></g></g><g fill="#000000" fill-opacity="1"><g transform="translate(136.520101, 21.235616)"><g><path d="M 4.21875 0.140625 C 5.921875 0.140625 7.765625 -0.96875 7.765625 -3 C 7.765625 -4.765625 5.984375 -5.421875 4.484375 -6 C 3.296875 -6.46875 1.8125 -7 1.8125 -8.3125 C 1.8125 -9.484375 2.75 -10.171875 3.921875 -10.171875 C 5.359375 -10.171875 6.609375 -9.34375 7.21875 -7.828125 L 7.375 -7.890625 L 7.3125 -9.8125 C 6.546875 -10.1875 5.578125 -10.421875 4.484375 -10.421875 C 2.171875 -10.421875 0.6875 -9.296875 0.6875 -7.46875 C 0.6875 -5.75 1.96875 -5.25 3.484375 -4.609375 C 4.65625 -4.140625 6.5625 -3.46875 6.5625 -2.015625 C 6.5625 -0.8125 5.625 -0.15625 4.609375 -0.15625 C 2.640625 -0.15625 1.328125 -1.453125 0.703125 -3.140625 L 0.515625 -3.109375 L 0.578125 -0.90625 C 1.328125 -0.34375 2.703125 0.140625 4.21875 0.140625 Z M 4.21875 0.140625 "/></g></g></g><g fill="#000000" fill-opacity="1"><g transform="translate(146.93042, 21.235616)"><g><path d="M 5.4375 0.140625 C 7.59375 0.140625 9.140625 -1.046875 9.140625 -4.015625 L 9.140625 -8.453125 C 9.140625 -9.515625 9.25 -9.953125 9.734375 -10.125 L 9.734375 -10.328125 L 7.765625 -10.328125 L 7.765625 -10.125 C 8.53125 -9.875 8.875 -9.359375 8.875 -7.5625 L 8.875 -3.984375 C 8.875 -1.125 7.265625 -0.203125 6.03125 -0.203125 C 4.03125 -0.203125 2.703125 -1.203125 2.703125 -3.890625 L 2.703125 -8.453125 C 2.703125 -9.515625 2.796875 -9.953125 3.296875 -10.125 L 3.296875 -10.328125 L 0.546875 -10.328125 L 0.546875 -10.125 C 1.03125 -9.953125 1.140625 -9.515625 1.140625 -8.453125 L 1.140625 -4.015625 C 1.140625 -0.84375 3.3125 0.140625 5.4375 0.140625 Z M 5.4375 0.140625 "/></g></g></g><g fill="#000000" fill-opacity="1"><g transform="translate(159.316392, 21.235616)"><g><path d="M 8.46875 0.125 L 8.65625 0.125 L 8.65625 -8.453125 C 8.65625 -9.515625 8.765625 -9.953125 9.25 -10.125 L 9.25 -10.328125 L 7.25 -10.328125 L 7.25 -10.125 C 8.03125 -9.875 8.375 -9.359375 8.375 -7.5625 L 8.375 -2.5625 L 2.1875 -10.328125 L 0.515625 -10.328125 L 0.515625 -10.125 C 1.15625 -9.953125 1.28125 -9.515625 1.28125 -8.453125 L 1.28125 -1.875 C 1.28125 -0.8125 1.1875 -0.375 0.6875 -0.203125 L 0.6875 0 L 2.671875 0 L 2.671875 -0.203125 C 1.90625 -0.4375 1.546875 -0.953125 1.546875 -2.765625 L 1.546875 -8.609375 Z M 8.46875 0.125 "/></g></g></g><g fill="#000000" fill-opacity="1"><g transform="translate(90.296348, 34.3125)"><g><path d="M 3.71875 0.078125 C 4.921875 0.078125 5.96875 -0.578125 6.515625 -1.546875 L 5.9375 -1.859375 C 5.515625 -1.09375 4.6875 -0.578125 3.71875 -0.578125 C 2.3125 -0.578125 1.171875 -1.703125 1.171875 -3.125 C 1.171875 -4.546875 2.3125 -5.671875 3.71875 -5.671875 C 4.6875 -5.671875 5.515625 -5.15625 5.9375 -4.390625 L 6.515625 -4.71875 C 5.96875 -5.6875 4.921875 -6.34375 3.71875 -6.34375 C 1.953125 -6.34375 0.515625 -4.90625 0.515625 -3.125 C 0.515625 -1.359375 1.953125 0.078125 3.71875 0.078125 Z M 3.71875 0.078125 "/></g></g></g><g fill="#000000" fill-opacity="1"><g transform="translate(100.335109, 34.3125)"><g><path d="M 4.875 -6.25 L 4.875 -3.46875 L 1.421875 -3.46875 L 1.421875 -6.25 L 0.765625 -6.25 L 0.765625 0 L 1.421875 0 L 1.421875 -2.796875 L 4.875 -2.796875 L 4.875 0 L 5.546875 0 L 5.546875 -6.25 Z M 4.875 -6.25 "/></g></g></g><g fill="#000000" fill-opacity="1"><g transform="translate(109.820792, 34.3125)"><g><path d="M 4.234375 -5.609375 L 4.234375 -6.25 L 0.8125 -6.25 L 0.8125 0 L 4.234375 0 L 4.234375 -0.640625 L 1.484375 -0.640625 L 1.484375 -2.8125 L 3.875 -2.8125 L 3.875 -3.453125 L 1.484375 -3.453125 L 1.484375 -5.609375 Z M 4.234375 -5.609375 "/></g></g></g><g fill="#000000" fill-opacity="1"><g transform="translate(117.855972, 34.3125)"><g><path d="M 6.28125 -6.25 L 3.875 -0.796875 L 1.46875 -6.25 L 0.765625 -6.25 L 0.765625 0 L 1.421875 0 L 1.421875 -4.9375 L 3.59375 0 L 4.140625 0 L 6.328125 -4.921875 L 6.328125 0 L 6.984375 0 L 6.984375 -6.25 Z M 6.28125 -6.25 "/></g></g></g><g fill="#000000" fill-opacity="1"><g transform="translate(128.7713, 34.3125)"><g><path d="M 0.8125 0 L 1.484375 0 L 1.484375 -6.25 L 0.8125 -6.25 Z M 0.8125 0 "/></g></g></g><g fill="#000000" fill-opacity="1"><g transform="translate(134.22895, 34.3125)"><g><path d="M 3.71875 0.078125 C 4.921875 0.078125 5.96875 -0.578125 6.515625 -1.546875 L 5.9375 -1.859375 C 5.515625 -1.09375 4.6875 -0.578125 3.71875 -0.578125 C 2.3125 -0.578125 1.171875 -1.703125 1.171875 -3.125 C 1.171875 -4.546875 2.3125 -5.671875 3.71875 -5.671875 C 4.6875 -5.671875 5.515625 -5.15625 5.9375 -4.390625 L 6.515625 -4.71875 C 5.96875 -5.6875 4.921875 -6.34375 3.71875 -6.34375 C 1.953125 -6.34375 0.515625 -4.90625 0.515625 -3.125 C 0.515625 -1.359375 1.953125 0.078125 3.71875 0.078125 Z M 3.71875 0.078125 "/></g></g></g><g fill="#000000" fill-opacity="1"><g transform="translate(144.267712, 34.3125)"><g><path d="M 4.53125 0 L 5.265625 0 L 3 -6.25 L 2.265625 -6.25 L 0 0 L 0.734375 0 L 1.234375 -1.453125 L 4.03125 -1.453125 Z M 1.453125 -2.09375 L 2.640625 -5.46875 L 3.8125 -2.09375 Z M 1.453125 -2.09375 "/></g></g></g><g fill="#000000" fill-opacity="1"><g transform="translate(152.709869, 34.3125)"><g><path d="M 1.421875 -0.671875 L 1.421875 -6.25 L 0.765625 -6.25 L 0.765625 0 L 3.75 0 L 3.75 -0.671875 Z M 1.421875 -0.671875 "/></g></g></g></svg>