<svg xmlns="http://www.w3.org/2000/svg" xmlns:xlink="http://www.w3.org/1999/xlink" width="403" zoomAndPan="magnify" viewBox="0 0 302.25 186.749995" height="249" preserveAspectRatio="xMidYMid meet" version="1.0"><defs><g/><clipPath id="6624bdf537"><path d="M 147 0.105469 L 149 0.105469 L 149 75 L 147 75 Z M 147 0.105469 " clip-rule="nonzero"/></clipPath><clipPath id="91632dc13b"><path d="M 67 89 L 133 89 L 133 91.378906 L 67 91.378906 Z M 67 89 " clip-rule="nonzero"/></clipPath><clipPath id="2a00921830"><path d="M 163 89 L 228 89 L 228 91.378906 L 163 91.378906 Z M 163 89 " clip-rule="nonzero"/></clipPath><clipPath id="8433e4fd1d"><path d="M 59.035156 72 L 133 72 L 133 88 L 59.035156 88 Z M 59.035156 72 " clip-rule="nonzero"/></clipPath><clipPath id="e69824d1f3"><path d="M 163 72 L 236.34375 72 L 236.34375 89 L 163 89 Z M 163 72 " clip-rule="nonzero"/></clipPath><clipPath id="80184a0f88"><path d="M 130 72 L 166 72 L 166 91.378906 L 130 91.378906 Z M 130 72 " clip-rule="nonzero"/></clipPath></defs><g clip-path="url(#6624bdf537)"><path fill="#000000" d="M 147.070312 0.160156 L 148.175781 0.152344 L 148.476562 74.984375 L 147.371094 74.988281 Z M 147.070312 0.160156 " fill-opacity="1" fill-rule="nonzero"/></g><path fill="#000000" d="M 121.601562 29.105469 L 122.621094 28.679688 L 142.433594 75.96875 L 141.410156 76.398438 Z M 121.601562 29.105469 " fill-opacity="1" fill-rule="nonzero"/><path fill="#000000" d="M 104.703125 48.457031 L 105.484375 47.671875 L 137.246094 79.179688 L 136.464844 79.964844 Z M 104.703125 48.457031 " fill-opacity="1" fill-rule="nonzero"/><path fill="#000000" d="M 88.652344 66.859375 L 89.070312 65.835938 L 133.671875 84.101562 L 133.25 85.125 Z M 88.652344 66.859375 " fill-opacity="1" fill-rule="nonzero"/><g clip-path="url(#91632dc13b)"><path fill="#000000" d="M 67.144531 90.109375 L 132.246094 89.847656 L 132.25 90.953125 L 67.148438 91.214844 Z M 67.144531 90.109375 " fill-opacity="1" fill-rule="nonzero"/></g><g clip-path="url(#2a00921830)"><path fill="#000000" d="M 163.644531 90.082031 L 227.417969 89.839844 L 227.421875 90.945312 L 163.648438 91.191406 Z M 163.644531 90.082031 " fill-opacity="1" fill-rule="nonzero"/></g><path fill="#000000" d="M 162.273438 84.238281 L 205.992188 65.929688 L 206.421875 66.953125 L 162.699219 85.257812 Z M 162.273438 84.238281 " fill-opacity="1" fill-rule="nonzero"/><path fill="#000000" d="M 158.667969 79.21875 L 189.808594 47.851562 L 190.59375 48.628906 L 159.457031 79.996094 Z M 158.667969 79.21875 " fill-opacity="1" fill-rule="nonzero"/><path fill="#000000" d="M 153.429688 75.96875 L 172.757812 28.769531 L 173.785156 29.1875 L 154.457031 76.386719 Z M 153.429688 75.96875 " fill-opacity="1" fill-rule="nonzero"/><path fill="#000000" d="M 129.480469 2.003906 L 130.566406 1.78125 L 145.46875 75.167969 L 144.382812 75.390625 Z M 129.480469 2.003906 " fill-opacity="1" fill-rule="nonzero"/><path fill="#000000" d="M 97.042969 15.675781 L 97.960938 15.058594 L 139.855469 77.210938 L 138.9375 77.832031 Z M 97.042969 15.675781 " fill-opacity="1" fill-rule="nonzero"/><path fill="#000000" d="M 72.304688 40.71875 L 72.917969 39.792969 L 135.410156 81.1875 L 134.796875 82.113281 Z M 72.304688 40.71875 " fill-opacity="1" fill-rule="nonzero"/><g clip-path="url(#8433e4fd1d)"><path fill="#000000" d="M 59.035156 73.316406 L 59.246094 72.230469 L 132.757812 86.546875 L 132.542969 87.632812 Z M 59.035156 73.316406 " fill-opacity="1" fill-rule="nonzero"/></g><g clip-path="url(#e69824d1f3)"><path fill="#000000" d="M 163.230469 87.019531 L 235.992188 72.230469 L 236.214844 73.3125 L 163.449219 88.105469 Z M 163.230469 87.019531 " fill-opacity="1" fill-rule="nonzero"/></g><path fill="#000000" d="M 160.605469 81.378906 L 222.332031 39.808594 L 222.953125 40.726562 L 161.226562 82.296875 Z M 160.605469 81.378906 " fill-opacity="1" fill-rule="nonzero"/><path fill="#000000" d="M 156.074219 77.242188 L 197.289062 15.066406 L 198.214844 15.679688 L 156.996094 77.855469 Z M 156.074219 77.242188 " fill-opacity="1" fill-rule="nonzero"/><path fill="#000000" d="M 150.390625 75.171875 L 164.667969 1.789062 L 165.753906 2 L 151.476562 75.382812 Z M 150.390625 75.171875 " fill-opacity="1" fill-rule="nonzero"/><g clip-path="url(#80184a0f88)"><path fill="#000000" d="M 161.496094 91.199219 L 161.496094 90.644531 C 161.488281 89.746094 161.398438 88.851562 161.222656 87.988281 C 161.054688 87.167969 160.808594 86.355469 160.492188 85.578125 C 160.132812 84.699219 159.675781 83.855469 159.140625 83.070312 C 158.667969 82.375 158.128906 81.726562 157.539062 81.136719 C 156.878906 80.472656 156.148438 79.875 155.363281 79.363281 C 154.652344 78.898438 153.902344 78.5 153.121094 78.179688 C 152.285156 77.832031 151.410156 77.570312 150.519531 77.402344 C 149.675781 77.238281 148.808594 77.152344 147.945312 77.152344 C 147.054688 77.152344 146.183594 77.238281 145.332031 77.40625 C 144.449219 77.578125 143.578125 77.839844 142.746094 78.1875 C 141.988281 78.5 141.257812 78.886719 140.566406 79.339844 C 139.777344 79.851562 139.039062 80.449219 138.375 81.109375 C 135.769531 83.707031 134.390625 86.972656 134.390625 90.542969 L 134.390625 91.097656 L 130.074219 91.097656 L 130.074219 90.542969 C 130.074219 85.800781 131.890625 81.476562 135.324219 78.054688 C 136.199219 77.183594 137.171875 76.398438 138.210938 75.722656 C 139.121094 75.132812 140.089844 74.617188 141.089844 74.207031 C 142.191406 73.746094 143.335938 73.402344 144.507812 73.175781 C 145.625 72.957031 146.769531 72.847656 147.910156 72.84375 C 149.074219 72.84375 150.214844 72.953125 151.328125 73.167969 C 152.503906 73.394531 153.65625 73.742188 154.761719 74.199219 C 155.789062 74.621094 156.785156 75.148438 157.71875 75.761719 C 158.753906 76.441406 159.71875 77.222656 160.585938 78.09375 C 161.367188 78.875 162.074219 79.730469 162.695312 80.640625 C 163.402344 81.671875 164 82.789062 164.476562 83.945312 C 164.898438 84.976562 165.222656 86.050781 165.445312 87.132812 C 165.675781 88.273438 165.796875 89.453125 165.800781 90.628906 L 165.800781 91.183594 L 161.492188 91.203125 Z M 147.921875 76.046875 C 148.882812 76.046875 149.816406 76.136719 150.730469 76.3125 C 151.695312 76.496094 152.640625 76.78125 153.542969 77.152344 C 154.386719 77.503906 155.203125 77.9375 155.972656 78.4375 C 156.820312 78.996094 157.613281 79.640625 158.324219 80.351562 C 158.964844 80.992188 159.542969 81.695312 160.054688 82.445312 C 160.636719 83.292969 161.125 84.207031 161.519531 85.15625 C 161.859375 86 162.128906 86.875 162.3125 87.765625 C 162.464844 88.527344 162.558594 89.304688 162.589844 90.085938 L 164.691406 90.078125 C 164.65625 89.160156 164.546875 88.246094 164.367188 87.347656 C 164.160156 86.335938 163.855469 85.332031 163.457031 84.363281 C 163.011719 83.273438 162.449219 82.230469 161.785156 81.261719 C 161.203125 80.40625 160.539062 79.605469 159.808594 78.875 C 158.992188 78.058594 158.089844 77.320312 157.121094 76.683594 C 156.246094 76.109375 155.3125 75.617188 154.34375 75.214844 C 153.3125 74.789062 152.226562 74.464844 151.125 74.253906 C 150.078125 74.050781 149.007812 73.949219 147.941406 73.949219 C 146.84375 73.949219 145.769531 74.058594 144.722656 74.261719 C 143.625 74.476562 142.546875 74.800781 141.519531 75.226562 C 140.582031 75.617188 139.671875 76.09375 138.820312 76.652344 C 137.847656 77.285156 136.933594 78.019531 136.113281 78.839844 C 133.023438 81.917969 131.328125 85.765625 131.195312 89.992188 L 133.296875 89.992188 C 133.433594 86.335938 134.914062 83.003906 137.59375 80.324219 C 138.316406 79.605469 139.113281 78.960938 139.964844 78.40625 C 140.710938 77.925781 141.503906 77.503906 142.324219 77.164062 C 143.226562 76.792969 144.167969 76.507812 145.125 76.320312 C 146.046875 76.140625 146.988281 76.050781 147.921875 76.046875 Z M 147.921875 76.046875 " fill-opacity="1" fill-rule="nonzero"/></g><path fill="#000000" d="M 163.097656 90.636719 C 163.09375 89.636719 162.988281 88.636719 162.792969 87.667969 C 162.605469 86.746094 162.332031 85.839844 161.976562 84.96875 C 161.574219 83.988281 161.0625 83.042969 160.464844 82.164062 C 159.9375 81.394531 159.335938 80.667969 158.675781 80.003906 C 157.9375 79.265625 157.121094 78.597656 156.246094 78.019531 C 155.453125 77.5 154.609375 77.054688 153.734375 76.691406 C 152.800781 76.304688 151.824219 76.011719 150.828125 75.820312 C 149.878906 75.640625 148.910156 75.542969 147.945312 75.542969 C 146.953125 75.542969 145.980469 75.640625 145.03125 75.824219 C 144.039062 76.015625 143.0625 76.3125 142.132812 76.699219 C 141.285156 77.050781 140.464844 77.484375 139.695312 77.988281 C 138.8125 78.558594 137.992188 79.226562 137.246094 79.96875 C 134.328125 82.871094 132.792969 86.53125 132.792969 90.539062 L 131.683594 90.539062 C 131.683594 86.230469 133.335938 82.304688 136.460938 79.1875 C 137.257812 78.394531 138.140625 77.675781 139.089844 77.0625 C 139.921875 76.523438 140.796875 76.058594 141.710938 75.679688 C 142.710938 75.269531 143.753906 74.949219 144.816406 74.742188 C 145.835938 74.542969 146.878906 74.445312 147.921875 74.441406 L 147.925781 74.441406 C 148.984375 74.441406 150.023438 74.542969 151.035156 74.738281 C 152.105469 74.941406 153.152344 75.257812 154.15625 75.675781 C 155.09375 76.0625 155.996094 76.539062 156.851562 77.097656 C 157.789062 77.714844 158.667969 78.429688 159.457031 79.222656 C 160.167969 79.933594 160.8125 80.714844 161.378906 81.539062 C 162.023438 82.480469 162.566406 83.496094 162.996094 84.550781 C 163.382812 85.488281 163.675781 86.464844 163.875 87.449219 C 164.085938 88.488281 164.195312 89.558594 164.199219 90.632812 L 163.09375 90.632812 Z M 163.097656 90.636719 " fill-opacity="1" fill-rule="nonzero"/><g fill="#000000" fill-opacity="1"><g transform="translate(38.758627, 137.189499)"><g><path d="M 1.859375 0 L 9.28125 0 C 18.125 0 21.171875 -4.296875 21.109375 -8.375 C 21.0625 -11.9375 18.453125 -14.890625 12.515625 -15.171875 C 16.671875 -15.9375 18.265625 -18.1875 18.265625 -20.671875 C 18.265625 -23.625 15.96875 -25.46875 10.375 -25.46875 L 1.859375 -25.46875 L 1.859375 -25 C 2.953125 -24.671875 3.3125 -23.828125 3.3125 -20.859375 L 3.3125 -4.625 C 3.3125 -1.640625 2.953125 -0.796875 1.859375 -0.46875 Z M 6.296875 -3.71875 L 6.296875 -14.703125 L 10 -14.703125 C 15.46875 -14.703125 17.796875 -11.640625 17.796875 -7.453125 C 17.796875 -3.421875 15.53125 -0.546875 9.609375 -0.546875 L 8.1875 -0.546875 C 6.625 -0.546875 6.296875 -1.09375 6.296875 -3.71875 Z M 6.296875 -15.25 L 6.296875 -24.921875 L 9.0625 -24.921875 C 12.8125 -24.921875 14.953125 -23.03125 14.953125 -20.015625 C 14.953125 -17.359375 13.28125 -15.25 9.6875 -15.25 Z M 6.296875 -15.25 "/></g></g></g><g fill="#000000" fill-opacity="1"><g transform="translate(66.596402, 137.189499)"><g><path d="M 1.859375 0 L 18.78125 0 L 19.03125 -4.109375 L 18.625 -4.1875 C 17.359375 -1.453125 15.75 -0.578125 12.265625 -0.578125 L 7.9375 -0.578125 C 6.875 -0.578125 6.296875 -1.171875 6.296875 -2.21875 L 6.296875 -20.859375 C 6.296875 -23.828125 6.625 -24.671875 7.75 -25 L 7.75 -25.46875 L 1.859375 -25.46875 L 1.859375 -25 C 2.953125 -24.671875 3.3125 -23.828125 3.3125 -20.859375 L 3.3125 -4.625 C 3.3125 -1.640625 2.953125 -0.796875 1.859375 -0.46875 Z M 1.859375 0 "/></g></g></g><g fill="#000000" fill-opacity="1"><g transform="translate(91.923476, 137.189499)"><g><path d="M -0.625 0 L 3.5 0 L 3.5 -0.46875 C 2.25 -0.734375 2.109375 -1.921875 3.0625 -4.296875 L 5.203125 -9.609375 L 15.46875 -9.609375 L 17.6875 -4.25 C 18.84375 -1.53125 19.140625 -0.796875 18.015625 -0.46875 L 18.015625 0 L 23.65625 0 L 23.65625 -0.46875 C 22.890625 -0.796875 22.015625 -1.53125 20.890625 -4.25 L 11.9375 -25.765625 L 9.203125 -24.53125 L 9.53125 -23.765625 C 9.828125 -23.1875 9.859375 -22.703125 9.609375 -22.046875 L 2.4375 -4.296875 C 1.3125 -1.53125 0.40625 -0.796875 -0.625 -0.46875 Z M 5.421875 -10.15625 L 10.265625 -22.125 L 15.25 -10.15625 Z M 5.421875 -10.15625 "/></g></g></g><g fill="#000000" fill-opacity="1"><g transform="translate(120.816476, 137.189499)"><g><path d="M 15.609375 0.359375 C 19.6875 0.359375 23.140625 -0.65625 24.859375 -1.59375 L 25.4375 -6.328125 L 25.03125 -6.375 C 23.625 -2.4375 20.5625 -0.359375 16.625 -0.359375 C 9.0625 -0.359375 4.90625 -6.921875 4.953125 -13.75 C 4.953125 -21.171875 9.421875 -25.03125 15.21875 -25.03125 C 19.546875 -25.03125 23 -22.8125 24.421875 -19.5 L 24.78125 -19.578125 L 24.640625 -23.90625 C 23.21875 -24.8125 19.578125 -25.734375 16.453125 -25.734375 C 7.890625 -25.734375 1.890625 -19.984375 1.890625 -12.234375 C 1.890625 -4.296875 7.234375 0.359375 15.609375 0.359375 Z M 15.609375 0.359375 "/></g></g></g><g fill="#000000" fill-opacity="1"><g transform="translate(153.348182, 137.189499)"><g><path d="M 1.859375 0 L 7.75 0 L 7.75 -0.46875 C 6.625 -0.796875 6.296875 -1.640625 6.296875 -4.625 L 6.296875 -10.875 L 8.984375 -13.640625 L 9.71875 -13.640625 C 13.390625 -13.75 13.9375 -11.53125 16.34375 -5.640625 C 18.09375 -1.390625 18.734375 0.1875 21.390625 0.1875 C 22.15625 0.1875 22.96875 0.109375 23.578125 -0.078125 L 23.578125 -0.546875 C 23.359375 -0.515625 23.1875 -0.515625 22.96875 -0.515625 C 21.796875 -0.515625 21 -1.78125 19.140625 -6.4375 C 16.671875 -12.65625 15.828125 -14.625 10.40625 -14.265625 L 9.578125 -14.234375 L 17.328125 -22.15625 C 19.390625 -24.3125 20.921875 -24.671875 22.09375 -25 L 22.09375 -25.46875 L 17.03125 -25.46875 L 17.03125 -25.140625 C 18.453125 -24.921875 18.125 -23.734375 15.828125 -21.359375 L 6.296875 -11.609375 L 6.296875 -20.859375 C 6.296875 -23.828125 6.625 -24.671875 7.75 -25 L 7.75 -25.46875 L 1.859375 -25.46875 L 1.859375 -25 C 2.953125 -24.671875 3.3125 -23.828125 3.3125 -20.859375 L 3.3125 -4.625 C 3.3125 -1.640625 2.953125 -0.796875 1.859375 -0.46875 Z M 1.859375 0 "/></g></g></g><g fill="#000000" fill-opacity="1"><g transform="translate(182.204797, 137.189499)"><g><path d="M 10.375 0.359375 C 14.671875 0.359375 18.890625 -2.40625 18.890625 -6.953125 C 18.890625 -11.0625 15.109375 -12.65625 11.0625 -14.265625 C 7.96875 -15.53125 4.21875 -16.921875 4.21875 -20.34375 C 4.21875 -23.4375 6.734375 -25.140625 9.6875 -25.140625 C 13.828125 -25.140625 16.375 -22.890625 17.71875 -19.71875 L 18.09375 -19.828125 L 17.9375 -24.046875 C 16.515625 -24.8125 14.15625 -25.734375 10.84375 -25.734375 C 5.5 -25.734375 1.96875 -23.03125 1.96875 -18.78125 C 1.96875 -14.921875 4.6875 -13.390625 8.984375 -11.6875 C 12.046875 -10.4375 16.515625 -8.765625 16.515625 -5.125 C 16.515625 -2.1875 14.015625 -0.296875 11.09375 -0.296875 C 6.046875 -0.296875 3.28125 -3.53125 1.859375 -7.34375 L 1.453125 -7.28125 L 1.640625 -2.21875 C 3.34375 -0.984375 6.546875 0.359375 10.375 0.359375 Z M 10.375 0.359375 "/></g></g></g><g fill="#000000" fill-opacity="1"><g transform="translate(207.822968, 137.189499)"><g><path d="M 13.140625 0.359375 C 18.1875 0.359375 22.203125 -2.40625 22.203125 -9.71875 L 22.203125 -20.859375 C 22.203125 -23.828125 22.5625 -24.671875 23.65625 -25 L 23.65625 -25.46875 L 19.140625 -25.46875 L 19.140625 -25 C 20.75 -24.5625 21.609375 -23.546875 21.609375 -19.390625 L 21.609375 -9.609375 C 21.609375 -2.46875 17.4375 -0.40625 14.296875 -0.40625 C 9.578125 -0.40625 5.828125 -2.84375 5.828125 -9.609375 L 5.828125 -20.859375 C 5.828125 -23.828125 6.1875 -24.671875 7.28125 -25 L 7.28125 -25.46875 L 1.390625 -25.46875 L 1.390625 -25 C 2.515625 -24.671875 2.84375 -23.828125 2.84375 -20.859375 L 2.84375 -9.390625 C 2.84375 -2.078125 7.9375 0.359375 13.140625 0.359375 Z M 13.140625 0.359375 "/></g></g></g><g fill="#000000" fill-opacity="1"><g transform="translate(238.098675, 137.189499)"><g><path d="M 21.0625 0.296875 L 21.546875 0.296875 L 21.546875 -20.859375 C 21.546875 -23.828125 21.875 -24.671875 23 -25 L 23 -25.46875 L 18.40625 -25.46875 L 18.40625 -25 C 20.046875 -24.5625 20.921875 -23.546875 20.921875 -19.390625 L 20.921875 -4.875 L 5.015625 -25.46875 L 1.453125 -25.46875 L 1.453125 -25 C 2.90625 -24.671875 3.34375 -23.828125 3.34375 -20.859375 L 3.34375 -4.625 C 3.34375 -1.640625 2.984375 -0.796875 1.890625 -0.46875 L 1.890625 0 L 6.4375 0 L 6.4375 -0.46875 C 4.796875 -0.90625 3.9375 -1.921875 3.9375 -6.078125 L 3.9375 -22.015625 Z M 21.0625 0.296875 "/></g></g></g><g fill="#000000" fill-opacity="1"><g transform="translate(61.200468, 172.709984)"><g><path d="M 9.71875 0.21875 C 12.84375 0.21875 15.578125 -1.5 17.015625 -4.03125 L 15.515625 -4.875 C 14.40625 -2.859375 12.21875 -1.53125 9.71875 -1.53125 C 6.046875 -1.53125 3.078125 -4.46875 3.078125 -8.171875 C 3.078125 -11.875 6.046875 -14.8125 9.71875 -14.8125 C 12.21875 -14.8125 14.40625 -13.484375 15.515625 -11.46875 L 17.015625 -12.3125 C 15.578125 -14.84375 12.84375 -16.546875 9.71875 -16.546875 C 5.09375 -16.546875 1.328125 -12.796875 1.328125 -8.171875 C 1.328125 -3.546875 5.09375 0.21875 9.71875 0.21875 Z M 9.71875 0.21875 "/></g></g></g><g fill="#000000" fill-opacity="1"><g transform="translate(87.383891, 172.709984)"><g><path d="M 12.734375 -16.328125 L 12.734375 -9.046875 L 3.734375 -9.046875 L 3.734375 -16.328125 L 1.984375 -16.328125 L 1.984375 0 L 3.734375 0 L 3.734375 -7.296875 L 12.734375 -7.296875 L 12.734375 0 L 14.484375 0 L 14.484375 -16.328125 Z M 12.734375 -16.328125 "/></g></g></g><g fill="#000000" fill-opacity="1"><g transform="translate(112.124801, 172.709984)"><g><path d="M 11.046875 -14.640625 L 11.046875 -16.328125 L 2.125 -16.328125 L 2.125 0 L 11.046875 0 L 11.046875 -1.6875 L 3.859375 -1.6875 L 3.859375 -7.328125 L 10.125 -7.328125 L 10.125 -9.015625 L 3.859375 -9.015625 L 3.859375 -14.640625 Z M 11.046875 -14.640625 "/></g></g></g><g fill="#000000" fill-opacity="1"><g transform="translate(133.08251, 172.709984)"><g><path d="M 16.390625 -16.328125 L 10.09375 -2.09375 L 3.84375 -16.328125 L 1.984375 -16.328125 L 1.984375 0 L 3.734375 0 L 3.734375 -12.90625 L 9.359375 0 L 10.8125 0 L 16.5 -12.84375 L 16.5 0 L 18.21875 0 L 18.21875 -16.328125 Z M 16.390625 -16.328125 "/></g></g></g><g fill="#000000" fill-opacity="1"><g transform="translate(161.552175, 172.709984)"><g><path d="M 2.125 0 L 3.859375 0 L 3.859375 -16.328125 L 2.125 -16.328125 Z M 2.125 0 "/></g></g></g><g fill="#000000" fill-opacity="1"><g transform="translate(175.787217, 172.709984)"><g><path d="M 9.71875 0.21875 C 12.84375 0.21875 15.578125 -1.5 17.015625 -4.03125 L 15.515625 -4.875 C 14.40625 -2.859375 12.21875 -1.53125 9.71875 -1.53125 C 6.046875 -1.53125 3.078125 -4.46875 3.078125 -8.171875 C 3.078125 -11.875 6.046875 -14.8125 9.71875 -14.8125 C 12.21875 -14.8125 14.40625 -13.484375 15.515625 -11.46875 L 17.015625 -12.3125 C 15.578125 -14.84375 12.84375 -16.546875 9.71875 -16.546875 C 5.09375 -16.546875 1.328125 -12.796875 1.328125 -8.171875 C 1.328125 -3.546875 5.09375 0.21875 9.71875 0.21875 Z M 9.71875 0.21875 "/></g></g></g><g fill="#000000" fill-opacity="1"><g transform="translate(201.970644, 172.709984)"><g><path d="M 11.84375 0 L 13.75 0 L 7.84375 -16.328125 L 5.90625 -16.328125 L 0 0 L 1.90625 0 L 3.234375 -3.8125 L 10.515625 -3.8125 Z M 3.8125 -5.46875 L 6.890625 -14.265625 L 9.9375 -5.46875 Z M 3.8125 -5.46875 "/></g></g></g><g fill="#000000" fill-opacity="1"><g transform="translate(223.989831, 172.709984)"><g><path d="M 3.734375 -1.75 L 3.734375 -16.328125 L 1.984375 -16.328125 L 1.984375 0 L 9.796875 0 L 9.796875 -1.75 Z M 3.734375 -1.75 "/></g></g></g></svg>